<svg width="24" height="24" viewBox="0 0 24 24" fill="none" xmlns="http://www.w3.org/2000/svg">
<g clip-path="url(#clip0_119_808)">
<path d="M16 14H14.71L14.43 13.73C15.41 12.59 16 11.11 16 9.5C16 5.91 13.09 3 9.5 3C5.91 3 3 5.91 3 9.5C3 13.09 5.91 16 9.5 16C11.11 16 12.59 15.41 13.73 14.43L14 14.71V16L19 20.49L20.49 19L16 14ZM9.5 13C7.5 13 6 11.5 6 9.5C6 7.5 7.5 6 9.5 6C11.5 6 13 7.5 13 9.5C13 11.5 11.5 13 9.5 13Z" fill="#6201E0"/>
</g>
<defs>
<clipPath id="clip0_119_808">
<rect width="24" height="24" fill="white"/>
</clipPath>
</defs>
</svg>
