<svg width="64" height="64" viewBox="0 0 64 64" fill="none" xmlns="http://www.w3.org/2000/svg">
<rect width="64" height="64" rx="32" fill="#6201E0"/>
<rect x="0.5" y="0.5" width="63" height="63" rx="31.5" stroke="white" stroke-opacity="0.15"/>
<path d="M32 33.7778C31.4963 33.7778 31.0744 33.6071 30.7342 33.2658C30.3929 32.9256 30.2222 32.5037 30.2222 32V17.7778C30.2222 17.2741 30.3929 16.8516 30.7342 16.5102C31.0744 16.1701 31.4963 16 32 16C32.5037 16 32.9262 16.1701 33.2676 16.5102C33.6077 16.8516 33.7778 17.2741 33.7778 17.7778V32C33.7778 32.5037 33.6077 32.9256 33.2676 33.2658C32.9262 33.6071 32.5037 33.7778 32 33.7778ZM32 48C29.7778 48 27.6966 47.5781 25.7564 46.7342C23.8151 45.8892 22.1262 44.7479 20.6898 43.3102C19.2521 41.8738 18.1108 40.1855 17.2658 38.2453C16.4219 36.304 16 34.2222 16 32C16 29.9556 16.3704 28 17.1111 26.1333C17.8519 24.2667 18.9185 22.5778 20.3111 21.0667C20.637 20.7111 21.0519 20.5333 21.5556 20.5333C22.0593 20.5333 22.4889 20.7111 22.8444 21.0667C23.1704 21.3926 23.3185 21.7997 23.2889 22.288C23.2593 22.7775 23.0815 23.2148 22.7556 23.6C21.7185 24.7556 20.9262 26.0516 20.3787 27.488C19.8299 28.9256 19.5556 30.4296 19.5556 32C19.5556 35.4667 20.7633 38.4071 23.1787 40.8213C25.5929 43.2367 28.5333 44.4444 32 44.4444C35.4667 44.4444 38.4071 43.2367 40.8213 40.8213C43.2367 38.4071 44.4444 35.4667 44.4444 32C44.4444 30.4296 44.163 28.9108 43.6 27.4436C43.037 25.9775 42.237 24.6667 41.2 23.5111C40.8741 23.1556 40.704 22.7407 40.6898 22.2667C40.6744 21.7926 40.8296 21.3926 41.1556 21.0667C41.5111 20.7111 41.9407 20.5333 42.4444 20.5333C42.9481 20.5333 43.363 20.7111 43.6889 21.0667C45.0815 22.5778 46.1481 24.2667 46.8889 26.1333C47.6296 28 48 29.9556 48 32C48 34.2222 47.5781 36.304 46.7342 38.2453C45.8892 40.1855 44.7484 41.8738 43.312 43.3102C41.8744 44.7479 40.1855 45.8892 38.2453 46.7342C36.304 47.5781 34.2222 48 32 48Z" fill="white"/>
</svg>
