<svg width="233" height="21" viewBox="0 0 233 21" fill="none" xmlns="http://www.w3.org/2000/svg">
<path d="M8.064 13.184C6.752 13.184 5.616 12.92 4.656 12.392C3.696 11.848 2.96 11.08 2.448 10.088C1.936 9.096 1.68 7.936 1.68 6.608C1.68 5.456 1.904 4.392 2.352 3.416C2.8 2.424 3.448 1.632 4.296 1.04C5.144 0.432 6.144 0.112 7.296 0.079999C8.608 0.0479994 9.584 0.0319996 10.224 0.0319996C11.536 0.0319996 12.52 0.0479994 13.176 0.079999C14.328 0.127999 15.328 0.455999 16.176 1.064C17.024 1.672 17.672 2.464 18.12 3.44C18.584 4.416 18.816 5.472 18.816 6.608C18.816 7.904 18.56 9.056 18.048 10.064C17.536 11.056 16.792 11.824 15.816 12.368C14.856 12.912 13.728 13.184 12.432 13.184V16.976H19.92V20.288H0.552V16.976H8.064V13.184ZM5.496 6.608C5.496 7.408 5.72 8.128 6.168 8.768C6.632 9.392 7.256 9.736 8.04 9.8C8.472 9.832 9.112 9.848 9.96 9.848C10.536 9.848 11.368 9.832 12.456 9.8C13.224 9.768 13.832 9.432 14.28 8.792C14.744 8.136 14.976 7.408 14.976 6.608C14.976 5.792 14.744 5.064 14.28 4.424C13.832 3.784 13.216 3.456 12.432 3.44C11.408 3.408 10.632 3.392 10.104 3.392C9.192 3.392 8.504 3.408 8.04 3.44C7.256 3.488 6.632 3.824 6.168 4.448C5.72 5.072 5.496 5.792 5.496 6.608ZM39.8764 13.808H35.9404L34.9084 11.816C33.9644 9.992 33.2124 8.52 32.6524 7.4C32.1084 6.28 31.5884 5.144 31.0924 3.992C30.7884 4.792 30.4364 5.568 30.0364 6.32C29.6524 7.072 29.1244 8.04 28.4524 9.224L25.8364 13.808H21.1804L26.8444 3.584H22.2364V0.248H39.1324V3.584H34.7404L39.8764 13.808ZM40.4044 20.288H21.0364V16.976H40.4044V20.288ZM56.4728 20.288V0.223999H60.3608V20.288H56.4728ZM42.2648 10.856C42.3288 8.856 42.3848 7.384 42.4328 6.44C42.4488 6.28 42.4568 6.024 42.4568 5.672C42.4888 5 42.5288 4.504 42.5768 4.184C42.7048 3.272 43.0888 2.528 43.7288 1.952C44.3848 1.36 45.1608 0.935999 46.0568 0.68C46.9528 0.408 47.8648 0.271999 48.7928 0.271999C49.7208 0.271999 50.5928 0.423999 51.4088 0.727999C52.2248 1.016 52.8808 1.48 53.3768 2.12C53.8888 2.744 54.1448 3.528 54.1448 4.472C54.1448 5.48 54.1128 6.664 54.0488 8.024C53.9848 9.368 53.8888 10.408 53.7608 11.144C53.5368 12.44 52.8328 13.352 51.6488 13.88C50.4808 14.408 49.1368 14.672 47.6168 14.672C46.2248 14.672 44.9848 14.384 43.8968 13.808C42.8088 13.216 42.2648 12.28 42.2648 11V10.856ZM48.5288 3.56C47.9848 3.56 47.5208 3.688 47.1367 3.944C46.7688 4.2 46.5128 4.584 46.3688 5.096C46.2728 5.464 46.2008 6.184 46.1528 7.256C46.1048 8.328 46.0808 9.24 46.0808 9.992C46.0808 10.936 46.6808 11.408 47.8808 11.408C48.4568 11.408 48.9208 11.32 49.2728 11.144C49.6408 10.952 49.8888 10.6 50.0168 10.088C50.1768 9.448 50.2728 8.768 50.3048 8.048C50.3368 7.312 50.3528 6.368 50.3528 5.216C50.3528 4.688 50.1768 4.28 49.8248 3.992C49.4888 3.704 49.0568 3.56 48.5288 3.56ZM41.5208 20.288V16.976H55.3208V20.288H41.5208ZM84.8087 20.288V15.344H80.9687L80.8247 16.352C80.3927 18.944 78.5927 20.24 75.4247 20.24C73.8887 20.24 72.5927 19.968 71.5367 19.424C70.4967 18.88 69.9767 17.912 69.9767 16.52C69.9767 16.328 69.9847 16.184 70.0007 16.088L70.1447 14.312C70.3207 12.072 70.4727 10.232 70.6007 8.792C70.7447 7.336 70.9207 5.888 71.1287 4.448C71.3527 2.896 71.9447 1.784 72.9047 1.112C73.8647 0.439999 75.1607 0.103999 76.7927 0.103999C78.2007 0.103999 79.4167 0.407999 80.4407 1.016C81.4807 1.608 82.0007 2.56 82.0007 3.872V4.088H84.8087V0.223999H88.6967V20.288H84.8087ZM75.4007 16.976C75.9607 16.976 76.3607 16.84 76.6007 16.568C76.8407 16.28 77.0087 15.84 77.1047 15.248C77.4727 12.944 77.8247 9.736 78.1607 5.624C78.1607 4.92 78.0727 4.376 77.8967 3.992C77.7207 3.592 77.3207 3.392 76.6967 3.392C76.0887 3.392 75.6567 3.6 75.4007 4.016C75.1447 4.416 74.9607 4.968 74.8487 5.672C74.4967 7.96 74.1687 11.16 73.8647 15.272V15.488C73.8647 16.032 73.9847 16.416 74.2247 16.64C74.4807 16.864 74.8727 16.976 75.4007 16.976ZM81.7367 7.736C81.6087 9.496 81.4967 10.816 81.4007 11.696H84.8087V7.736H81.7367ZM106.418 3.656V0.223999H110.306V12.344H106.418V7.304H102.722L103.922 11.264H100.394L98.3781 4.568C98.3461 4.696 98.2901 4.896 98.2101 5.168C98.1461 5.44 98.0741 5.664 97.9941 5.84L95.6661 11.336H91.3701L96.0741 0.271999H100.634L101.642 3.656H106.418ZM97.8741 20.792H92.0901L99.0501 13.184H106.25L111.05 20.792H106.442L103.562 16.256H101.81L97.8741 20.792ZM137.97 11.144V20.288H134.082V0.223999H137.97V7.832H140.682V11.144H137.97ZM131.97 0.248L128.658 20.048H124.674L127.41 3.56H120.21V0.248H131.97ZM156.363 20.288V0.223999H160.251V20.288H156.363ZM154.419 20.048H150.819C150.691 19.472 150.603 19.04 150.555 18.752C149.403 13.376 148.531 8.968 147.939 5.528C147.651 7.624 147.171 10.296 146.499 13.544L145.179 20.048H141.123L144.747 3.584H141.435V0.271999H154.131V3.584H150.963L154.419 20.048ZM187.795 0.248L186.355 14.696H182.251L183.403 3.56H171.019V0.248H187.795ZM169.747 20.288V16.976H189.139V20.288H169.747ZM205.184 12.104V0.223999H209.072V12.104H205.184ZM190.976 11.888V4.448H198.416V3.32H191.024V0.248H202.304V7.52H194.864V8.816H202.856V11.888H190.976ZM192.032 20.816V13.112H209.072V20.816H192.032ZM195.92 17.744H205.184V16.184H195.92V17.744ZM229.913 11.168V20.288H226.025V0.223999H229.913V7.832H232.601V11.168H229.913ZM224.849 20.048H221.249C219.921 13.744 218.961 8.928 218.369 5.6C218.081 7.68 217.601 10.328 216.929 13.544L215.609 20.048H211.553L215.177 3.656H211.865V0.344H224.201V3.656H221.393L224.849 20.048Z" fill="#F5F5F5"/>
</svg>
