<svg width="69" height="60" viewBox="0 0 69 60" fill="none" xmlns="http://www.w3.org/2000/svg">
<path d="M6.048 10.138C5.064 10.138 4.212 9.94 3.492 9.544C2.772 9.136 2.22 8.56 1.836 7.816C1.452 7.072 1.26 6.202 1.26 5.206C1.26 4.342 1.428 3.544 1.764 2.812C2.1 2.068 2.586 1.474 3.222 1.03C3.858 0.574 4.608 0.334 5.472 0.309999C6.456 0.286 7.188 0.274 7.668 0.274C8.652 0.274 9.39 0.286 9.882 0.309999C10.746 0.345999 11.496 0.592 12.132 1.048C12.768 1.504 13.254 2.098 13.59 2.83C13.938 3.562 14.112 4.354 14.112 5.206C14.112 6.178 13.92 7.042 13.536 7.798C13.152 8.542 12.594 9.118 11.862 9.526C11.142 9.934 10.296 10.138 9.324 10.138V12.982H14.94V15.466H0.414V12.982H6.048V10.138ZM4.122 5.206C4.122 5.806 4.29 6.346 4.626 6.826C4.974 7.294 5.442 7.552 6.03 7.6C6.354 7.624 6.834 7.636 7.47 7.636C7.902 7.636 8.526 7.624 9.342 7.6C9.918 7.576 10.374 7.324 10.71 6.844C11.058 6.352 11.232 5.806 11.232 5.206C11.232 4.594 11.058 4.048 10.71 3.568C10.374 3.088 9.912 2.842 9.324 2.83C8.556 2.806 7.974 2.794 7.578 2.794C6.894 2.794 6.378 2.806 6.03 2.83C5.442 2.866 4.974 3.118 4.626 3.586C4.29 4.054 4.122 4.594 4.122 5.206ZM29.9073 10.606H26.9553L26.1813 9.112C25.4733 7.744 24.9093 6.64 24.4893 5.8C24.0813 4.96 23.6913 4.108 23.3193 3.244C23.0913 3.844 22.8273 4.426 22.5273 4.99C22.2393 5.554 21.8433 6.28 21.3393 7.168L19.3773 10.606H15.8853L20.1333 2.938H16.6773V0.436H29.3493V2.938H26.0553L29.9073 10.606ZM30.3033 15.466H15.7773V12.982H30.3033V15.466ZM42.3546 15.466V0.417999H45.2706V15.466H42.3546ZM31.6986 8.392C31.7466 6.892 31.7886 5.788 31.8246 5.08C31.8366 4.96 31.8426 4.768 31.8426 4.504C31.8666 4 31.8966 3.628 31.9326 3.388C32.0286 2.704 32.3166 2.146 32.7966 1.714C33.2886 1.27 33.8706 0.952 34.5426 0.76C35.2146 0.556 35.8986 0.454 36.5946 0.454C37.2906 0.454 37.9446 0.567999 38.5566 0.795999C39.1686 1.012 39.6606 1.36 40.0326 1.84C40.4166 2.308 40.6086 2.896 40.6086 3.604C40.6086 4.36 40.5846 5.248 40.5366 6.268C40.4886 7.276 40.4166 8.056 40.3206 8.608C40.1526 9.58 39.6246 10.264 38.7366 10.66C37.8606 11.056 36.8526 11.254 35.7126 11.254C34.6686 11.254 33.7386 11.038 32.9226 10.606C32.1066 10.162 31.6986 9.46 31.6986 8.5V8.392ZM36.3966 2.92C35.9886 2.92 35.6406 3.016 35.3526 3.208C35.0766 3.4 34.8846 3.688 34.7766 4.072C34.7046 4.348 34.6506 4.888 34.6146 5.692C34.5786 6.496 34.5606 7.18 34.5606 7.744C34.5606 8.452 35.0106 8.806 35.9106 8.806C36.3426 8.806 36.6906 8.74 36.9546 8.608C37.2306 8.464 37.4166 8.2 37.5126 7.816C37.6326 7.336 37.7046 6.826 37.7286 6.286C37.7526 5.734 37.7646 5.026 37.7646 4.162C37.7646 3.766 37.6326 3.46 37.3686 3.244C37.1166 3.028 36.7926 2.92 36.3966 2.92ZM31.1406 15.466V12.982H41.4906V15.466H31.1406ZM11.628 37.466V33.758H8.748L8.64 34.514C8.316 36.458 6.966 37.43 4.59 37.43C3.438 37.43 2.466 37.226 1.674 36.818C0.894 36.41 0.504 35.684 0.504 34.64C0.504 34.496 0.51 34.388 0.522 34.316L0.63 32.984C0.762 31.304 0.876 29.924 0.972 28.844C1.08 27.752 1.212 26.666 1.368 25.586C1.536 24.422 1.98 23.588 2.7 23.084C3.42 22.58 4.392 22.328 5.616 22.328C6.672 22.328 7.584 22.556 8.352 23.012C9.132 23.456 9.522 24.17 9.522 25.154V25.316H11.628V22.418H14.544V37.466H11.628ZM4.572 34.982C4.992 34.982 5.292 34.88 5.472 34.676C5.652 34.46 5.778 34.13 5.85 33.686C6.126 31.958 6.39 29.552 6.642 26.468C6.642 25.94 6.576 25.532 6.444 25.244C6.312 24.944 6.012 24.794 5.544 24.794C5.088 24.794 4.764 24.95 4.572 25.262C4.38 25.562 4.242 25.976 4.158 26.504C3.894 28.22 3.648 30.62 3.42 33.704V33.866C3.42 34.274 3.51 34.562 3.69 34.73C3.882 34.898 4.176 34.982 4.572 34.982ZM9.324 28.052C9.228 29.372 9.144 30.362 9.072 31.022H11.628V28.052H9.324ZM27.835 24.992V22.418H30.751V31.508H27.835V27.728H25.063L25.963 30.698H23.317L21.805 25.676C21.781 25.772 21.739 25.922 21.679 26.126C21.631 26.33 21.577 26.498 21.517 26.63L19.771 30.752H16.549L20.077 22.454H23.497L24.253 24.992H27.835ZM21.427 37.844H17.089L22.309 32.138H27.709L31.309 37.844H27.853L25.693 34.442H24.379L21.427 37.844ZM51.499 30.608V37.466H48.583V22.418H51.499V28.124H53.533V30.608H51.499ZM46.999 22.436L44.515 37.286H41.527L43.579 24.92H38.179V22.436H46.999ZM65.294 37.466V22.418H68.21V37.466H65.294ZM63.836 37.286H61.136C61.04 36.854 60.974 36.53 60.938 36.314C60.074 32.282 59.42 28.976 58.976 26.396C58.76 27.968 58.4 29.972 57.896 32.408L56.906 37.286H53.864L56.582 24.938H54.098V22.454H63.62V24.938H61.244L63.836 37.286ZM13.95 44.436L12.87 55.272H9.792L10.656 46.92H1.368V44.436H13.95ZM0.414 59.466V56.982H14.958V59.466H0.414ZM26.9913 53.328V44.418H29.9073V53.328H26.9913ZM16.3353 53.166V47.586H21.9153V46.74H16.3713V44.436H24.8313V49.89H19.2513V50.862H25.2453V53.166H16.3353ZM17.1273 59.862V54.084H29.9073V59.862H17.1273ZM20.0433 57.558H26.9913V56.388H20.0433V57.558ZM45.5383 52.626V59.466H42.6223V44.418H45.5383V50.124H47.5543V52.626H45.5383ZM41.7403 59.286H39.0403C38.0443 54.558 37.3243 50.946 36.8803 48.45C36.6643 50.01 36.3043 51.996 35.8003 54.408L34.8103 59.286H31.7683L34.4863 46.992H32.0023V44.508H41.2543V46.992H39.1483L41.7403 59.286Z" fill="#1A1A1A"/>
</svg>
