<svg width="17" height="16" viewBox="0 0 17 16" fill="none" xmlns="http://www.w3.org/2000/svg">
<path d="M3.47049 10.8747C2.71956 10.8747 2.1054 10.628 1.62802 10.1345C1.15601 9.64106 0.919998 8.92231 0.919998 7.97828C0.919998 7.02889 1.15869 6.31014 1.63607 5.82203C2.11881 5.33392 2.73833 5.08987 3.49463 5.08987C4.25629 5.08987 4.87044 5.33124 5.3371 5.81398C5.80375 6.29136 6.03707 7.01816 6.03707 7.99437C6.03707 8.96522 5.79838 9.68934 5.321 10.1667C4.84362 10.6387 4.22679 10.8747 3.47049 10.8747ZM3.47854 6.63465C3.22107 6.63465 3.00384 6.75265 2.82683 6.98866C2.65519 7.22467 2.56937 7.55722 2.56937 7.98633C2.56937 8.41007 2.65251 8.73726 2.81879 8.9679C2.98506 9.19318 3.2023 9.30582 3.47049 9.30582C3.74404 9.30582 3.96396 9.1905 4.13024 8.95986C4.30188 8.72921 4.3877 8.39934 4.3877 7.97024C4.3877 7.54113 4.2992 7.21126 4.12219 6.98061C3.95055 6.74997 3.736 6.63465 3.47854 6.63465ZM6.57042 6.6266C6.47923 6.6266 6.41486 6.50323 6.37732 6.2565C6.36123 6.15459 6.35318 6.04195 6.35318 5.91858C6.35318 5.79521 6.36659 5.66648 6.39341 5.53238C6.44168 5.28565 6.52214 5.16228 6.63478 5.16228H9.6117C9.93889 5.16228 10.1508 5.45997 10.2473 6.05535C10.2688 6.18409 10.2795 6.27795 10.2795 6.33696L8.39679 9.19318H9.86916C9.87452 9.19318 9.87989 9.19318 9.88525 9.19318C10.0033 9.19318 10.0864 9.32192 10.1347 9.57938C10.1561 9.70275 10.1668 9.83148 10.1668 9.96557C10.1668 10.0997 10.1508 10.2418 10.1186 10.392C10.0596 10.6602 9.96839 10.7943 9.84502 10.7943H6.71524C6.66696 10.7943 6.57846 10.6334 6.44973 10.3115C6.32636 9.98435 6.26468 9.78052 6.26468 9.70006C6.26468 9.61961 6.27272 9.56865 6.28882 9.5472L8.17151 6.6266H6.57042Z" fill="#6201E0"/>
<path d="M11.874 10.8286H11.873V10.7553C11.8732 10.7538 11.874 10.752 11.874 10.7505V10.8286ZM10.6807 9.50827H10.6777V5.48581C10.6777 5.31227 10.8187 5.17142 10.9922 5.17136H11.0547C13.8318 5.17136 16.0839 7.42258 16.084 10.1997V10.5141C16.084 10.6876 15.943 10.8284 15.7695 10.8286H12.0303C11.9654 10.8283 11.9095 10.7883 11.8857 10.7319C11.8779 10.7134 11.8731 10.6927 11.873 10.6714V10.6089C11.873 10.0014 11.3809 9.50832 10.7734 9.50827H10.833C10.7533 9.50787 10.6903 9.44774 10.6807 9.37057V9.50827Z" fill="#F70000"/>
<path d="M10.6797 9.50891H10.6777V6.08118C10.6777 5.92602 10.8038 5.79999 10.959 5.79993C13.4421 5.79999 15.4551 7.81293 15.4551 10.296V10.5323C15.4551 10.6957 15.3225 10.8282 15.1592 10.8282H12.0254C11.9414 10.8253 11.8734 10.7566 11.873 10.672V10.6085C11.873 10.001 11.3809 9.50896 10.7734 9.50891H10.8369C10.7503 9.50885 10.6799 9.43826 10.6797 9.35168V9.50891Z" fill="#F78E00"/>
<path d="M10.6797 9.5083H10.6777V6.79443C10.6778 6.66186 10.7854 6.55438 10.918 6.5542C13.0417 6.5542 14.7637 8.27616 14.7637 10.3999V10.5767C14.7637 10.7155 14.6506 10.8286 14.5117 10.8286H12.0303C11.944 10.8281 11.8732 10.7577 11.873 10.6714V10.6089C11.873 10.0014 11.3809 9.50835 10.7734 9.5083H10.8369C10.7502 9.50824 10.6797 9.43782 10.6797 9.35107V9.5083Z" fill="#F7FE00"/>
<path d="M10.8701 7.37137C12.5691 7.37137 13.9462 8.74861 13.9463 10.4475V10.6253C13.9462 10.7375 13.8554 10.8283 13.7432 10.8284H12.0254C11.9415 10.8254 11.8735 10.7567 11.873 10.6721V10.6087C11.873 10.0074 11.3909 9.51903 10.792 9.50906H10.8369C10.7503 9.509 10.6799 9.43836 10.6797 9.35184V9.50809H10.6777V7.56375C10.6777 7.45761 10.764 7.37143 10.8701 7.37137Z" fill="#2FFE00"/>
<path d="M10.6797 9.50882H10.6777V8.33597C10.678 8.25452 10.7447 8.18857 10.8262 8.18851C12.1328 8.18873 13.1923 9.24802 13.1924 10.5547V10.6729C13.1924 10.7586 13.1228 10.828 13.0371 10.8282H12.0254C11.9414 10.8252 11.8734 10.7565 11.873 10.6719V10.6084C11.873 10.001 11.3809 9.50887 10.7734 9.50882H10.8369C10.7503 9.50876 10.6798 9.43821 10.6797 9.35159V9.50882Z" fill="#348CFD"/>
<path d="M11.874 10.8282H11.873V10.7559C11.8732 10.7543 11.874 10.7527 11.874 10.751V10.8282ZM10.6807 9.50885H10.6777V8.98737C10.6777 8.92819 10.726 8.88001 10.7852 8.87994C11.7326 8.87999 12.501 9.64828 12.501 10.5958V10.7139C12.501 10.7772 12.449 10.8282 12.3857 10.8282H12.0264C11.9424 10.8252 11.8743 10.7566 11.874 10.6719V10.6329C11.874 10.593 11.8722 10.5535 11.8682 10.5147C11.8205 9.9512 11.3493 9.5089 10.7734 9.50885H10.8379C10.7512 9.50879 10.6808 9.43825 10.6807 9.35162V9.50885Z" fill="#6201E0"/>
</svg>
