<svg width="47" height="20" viewBox="0 0 47 20" fill="none" xmlns="http://www.w3.org/2000/svg">
<path d="M9.34811 18.1215C7.21478 18.1215 5.47002 17.4205 4.11383 16.0186C2.77288 14.6167 2.1024 12.5748 2.1024 9.89288C2.1024 7.19574 2.7805 5.15384 4.13669 3.76717C5.50811 2.3805 7.26811 1.68717 9.41669 1.68717C11.5805 1.68717 13.3253 2.37288 14.651 3.74431C15.9767 5.1005 16.6395 7.16526 16.6395 9.9386C16.6395 12.6967 15.9614 14.7538 14.6053 16.11C13.2491 17.451 11.4967 18.1215 9.34811 18.1215ZM9.37097 6.07574C8.63954 6.07574 8.0224 6.41098 7.51954 7.08145C7.03192 7.75193 6.78811 8.69669 6.78811 9.91574C6.78811 11.1196 7.02431 12.0491 7.49669 12.7043C7.96907 13.3443 8.58621 13.6643 9.34811 13.6643C10.1253 13.6643 10.75 13.3367 11.2224 12.6815C11.71 12.0262 11.9538 11.0891 11.9538 9.87003C11.9538 8.65098 11.7024 7.71384 11.1995 7.0586C10.7119 6.40336 10.1024 6.07574 9.37097 6.07574ZM18.1547 6.05288C17.8957 6.05288 17.7128 5.70241 17.6061 5.00146C17.5604 4.71193 17.5376 4.39193 17.5376 4.04146C17.5376 3.69098 17.5757 3.32526 17.6519 2.94431C17.789 2.24336 18.0176 1.89288 18.3376 1.89288H26.7947C27.7242 1.89288 28.3261 2.7386 28.6004 4.43003C28.6614 4.79574 28.6919 5.06241 28.6919 5.23003L23.3433 13.3443H27.5261C27.5414 13.3443 27.5566 13.3443 27.5719 13.3443C27.9071 13.3443 28.1433 13.71 28.2804 14.4415C28.3414 14.7919 28.3719 15.1576 28.3719 15.5386C28.3719 15.9196 28.3261 16.3234 28.2347 16.75C28.0671 17.5119 27.8081 17.8929 27.4576 17.8929H18.5661C18.429 17.8929 18.1776 17.4357 17.8119 16.5215C17.4614 15.5919 17.2861 15.0129 17.2861 14.7843C17.2861 14.5557 17.309 14.411 17.3547 14.35L22.7033 6.05288H18.1547Z" fill="#6201E0"/>
<path d="M30.8926 1.96405C38.7824 1.96405 45.1787 8.3604 45.1787 16.2502V17.1428C45.1786 17.6357 44.779 18.0351 44.2861 18.0353H33.6602C33.417 18.0348 33.2195 17.84 33.2148 17.5978V17.4103C33.2147 15.6847 31.8155 14.2855 30.0898 14.2853H30.2676C30.0215 14.2848 29.8213 14.0853 29.8213 13.8391V2.85663C29.8214 2.36383 30.2211 1.96434 30.7139 1.96405H30.8926Z" fill="#F70000"/>
<path d="M30.6201 3.74976C37.6743 3.74996 43.3926 9.46893 43.3926 16.5232V17.1951C43.3926 17.6591 43.0167 18.0358 42.5527 18.0359H33.2148V18.0349H33.6602C33.417 18.0344 33.2195 17.8396 33.2148 17.5974V17.4109C33.2148 15.6851 31.8156 14.286 30.0898 14.2859H30.0625C30.0489 14.2857 30.0351 14.2849 30.0215 14.2849C30.0182 14.2849 30.015 14.2857 30.0117 14.2859H29.8213V14.2849H30.2676C30.0214 14.2844 29.8213 14.0849 29.8213 13.8386V4.54761C29.8215 4.10697 30.1794 3.74982 30.6201 3.74976Z" fill="#F78E00"/>
<path d="M30.5039 5.89258C36.5373 5.89258 41.4287 10.784 41.4287 16.8174V17.3213C41.4286 17.7157 41.1083 18.0352 40.7139 18.0352H33.6602C33.417 18.0346 33.2195 17.8398 33.2148 17.5977V17.4102C33.2147 15.6845 31.8155 14.2853 30.0898 14.2852H30.2676C30.0215 14.2847 29.8213 14.0851 29.8213 13.8389V6.5752C29.8214 6.19831 30.1271 5.8928 30.5039 5.89258Z" fill="#F7FE00"/>
<path d="M30.3672 8.21405C35.1938 8.21405 39.1073 12.1267 39.1074 16.9533V17.4582C39.1072 17.7771 38.8482 18.0353 38.5293 18.0353H33.6602C33.417 18.0348 33.2195 17.84 33.2148 17.5978V17.4103C33.2148 15.6846 31.8156 14.2855 30.0898 14.2853H30.2676C30.0215 14.2848 29.8213 14.0853 29.8213 13.8391V8.75995C29.8215 8.45864 30.0659 8.21436 30.3672 8.21405Z" fill="#2FFE00"/>
<path d="M30.2412 10.5355C33.954 10.5355 36.9638 13.5453 36.9639 17.2581V17.5941C36.9639 17.8376 36.7669 18.0353 36.5234 18.0355H33.6602C33.417 18.035 33.2196 17.84 33.2148 17.598V17.4105C33.2148 15.6847 31.8156 14.2856 30.0898 14.2855H30.2676C30.0215 14.285 29.8214 14.0853 29.8213 13.8392V10.9554C29.8214 10.7236 30.0095 10.5357 30.2412 10.5355Z" fill="#348CFD"/>
<path d="M30.126 12.4998C32.8178 12.4998 35 14.682 35 17.3738V17.7097C35 17.8894 34.8544 18.0356 34.6748 18.0359H33.2148V18.0349H33.6602C33.417 18.0343 33.2195 17.8396 33.2148 17.5974V17.4109C33.2148 15.6851 31.8156 14.286 30.0898 14.2859H30.0625C30.0489 14.2857 30.0351 14.2849 30.0215 14.2849C30.0182 14.2849 30.015 14.2857 30.0117 14.2859H29.8213V14.2849H30.2676C30.0215 14.2844 29.8213 14.0848 29.8213 13.8386V12.8044C29.8213 12.6363 29.9578 12.4999 30.126 12.4998Z" fill="#6201E0"/>
</svg>
