<svg width="231" height="100" viewBox="0 0 231 100" fill="none" xmlns="http://www.w3.org/2000/svg">
<path d="M47.2425 91.6072C36.5759 91.6072 27.852 88.1024 21.0711 81.0929C14.3663 74.0833 11.0139 63.8738 11.0139 50.4643C11.0139 36.9786 14.4044 26.7691 21.1854 19.8357C28.0425 12.9024 36.8425 9.43571 47.5854 9.43571C58.4044 9.43571 67.1282 12.8643 73.7568 19.7214C80.3854 26.5024 83.6997 36.8262 83.6997 50.6929C83.6997 64.4833 80.3092 74.7691 73.5282 81.55C66.7473 88.2548 57.9854 91.6072 47.2425 91.6072ZM47.3568 31.3786C43.6997 31.3786 40.6139 33.0548 38.0997 36.4071C35.6616 39.7595 34.4425 44.4833 34.4425 50.5786C34.4425 56.5976 35.6235 61.2452 37.9854 64.5214C40.3473 67.7214 43.433 69.3214 47.2425 69.3214C51.1282 69.3214 54.252 67.6833 56.6139 64.4071C59.052 61.131 60.2711 56.4452 60.2711 50.35C60.2711 44.2548 59.014 39.5691 56.4997 36.2929C54.0616 33.0167 51.0139 31.3786 47.3568 31.3786ZM91.2756 31.2643C89.9803 31.2643 89.066 29.5119 88.5327 26.0071C88.3041 24.5595 88.1898 22.9595 88.1898 21.2071C88.1898 19.4548 88.3803 17.6262 88.7613 15.7214C89.447 12.2167 90.5898 10.4643 92.1898 10.4643H134.476C139.123 10.4643 142.133 14.6929 143.504 23.15C143.809 24.9786 143.961 26.3119 143.961 27.15L117.218 67.7214H138.133C138.209 67.7214 138.285 67.7214 138.361 67.7214C140.037 67.7214 141.218 69.55 141.904 73.2071C142.209 74.9595 142.361 76.7881 142.361 78.6929C142.361 80.5976 142.133 82.6167 141.676 84.75C140.837 88.5595 139.542 90.4643 137.79 90.4643H93.3327C92.647 90.4643 91.3898 88.1786 89.5613 83.6072C87.8089 78.9595 86.9327 76.0643 86.9327 74.9214C86.9327 73.7786 87.047 73.0548 87.2756 72.75L114.018 31.2643H91.2756Z" fill="#6201E0"/>
<path d="M154.965 9.82129C194.414 9.82139 226.394 41.8012 226.394 81.25V85.7139C226.394 88.1794 224.394 90.1787 221.929 90.1787H168.809C167.625 90.1784 166.658 89.256 166.583 88.0908V90.1787H166.575V89.0918C166.575 89.0866 166.576 89.0814 166.576 89.0762V89.1885C166.58 89.1516 166.582 89.114 166.582 89.0762V88.0703C166.58 88.0292 166.576 87.9879 166.576 87.9463V87.3955C166.576 87.3678 166.575 87.3402 166.575 87.3125V87.0537C166.575 78.4245 159.579 71.4288 150.95 71.4287H151.835C151.806 71.4287 151.777 71.4249 151.748 71.4238C151.703 71.422 151.657 71.4215 151.612 71.417C150.512 71.308 149.65 70.4007 149.607 69.2822V14.2852C149.608 11.8199 151.607 9.82134 154.072 9.82129H154.965Z" fill="#F70000"/>
<path d="M153.599 18.75C188.871 18.75 217.465 47.3434 217.465 82.6152V85.9765C217.465 88.297 215.583 90.1787 213.263 90.1787H168.809C167.576 90.1784 166.576 89.1787 166.576 87.9463V87.3955C166.576 87.3678 166.575 87.3401 166.575 87.3125V87.0537C166.575 78.4243 159.58 71.4288 150.95 71.4287H151.835C150.63 71.4285 149.651 70.4736 149.607 69.2793V22.7412C149.608 20.537 151.395 18.7503 153.599 18.75ZM166.576 90.1787H166.575V89.0869C166.575 89.0833 166.576 89.0797 166.576 89.0761V90.1787Z" fill="#F78E00"/>
<path d="M153.021 29.4641C183.188 29.4641 207.644 53.9194 207.644 84.0861V86.6066C207.644 88.5789 206.044 90.1777 204.072 90.1779H168.789C167.565 90.1674 166.576 89.1725 166.576 87.9465V87.3957C166.576 87.368 166.575 87.3404 166.575 87.3127V87.0539C166.575 78.4245 159.58 71.429 150.95 71.4289H151.835C150.63 71.4287 149.651 70.4737 149.607 69.2795V32.8781C149.607 30.9927 151.136 29.4641 153.021 29.4641ZM166.576 90.1779H166.575V89.0949C166.575 89.0888 166.576 89.0826 166.576 89.0764V90.1779Z" fill="#F7FE00"/>
<path d="M152.339 41.0713C176.472 41.0714 196.036 60.6353 196.036 84.7686V87.29C196.036 88.8853 194.743 90.1787 193.147 90.1787H168.809C167.576 90.1784 166.576 89.1787 166.576 87.9463V87.3955C166.576 87.3603 166.575 87.3252 166.575 87.29V87.0537C166.575 78.4243 159.58 71.4288 150.95 71.4287H151.835C150.63 71.4285 149.651 70.4736 149.607 69.2793V43.8027C149.607 42.2944 150.831 41.0713 152.339 41.0713ZM166.576 90.1787H166.575V89.0947C166.575 89.0886 166.576 89.0824 166.576 89.0762V90.1787Z" fill="#2FFE00"/>
<path d="M151.708 52.6783C170.272 52.6783 185.322 67.7275 185.322 86.2916V87.9723C185.322 89.1904 184.334 90.1782 183.116 90.1783H168.809V90.1774C167.576 90.1771 166.577 89.1781 166.576 87.9459V87.3941C166.576 87.3665 166.575 87.3388 166.575 87.3111V87.0533C166.575 78.424 159.58 71.4285 150.95 71.4283H151.835C150.63 71.4281 149.651 70.4723 149.607 69.2779V54.7789C149.608 53.6189 150.548 52.6786 151.708 52.6783ZM166.576 90.1783H166.575V89.0934C166.575 89.0872 166.576 89.081 166.576 89.0748V90.1783Z" fill="#348CFD"/>
<path d="M151.131 62.5C164.59 62.5001 175.5 73.4111 175.5 86.8701V88.5508C175.5 89.4498 174.771 90.1787 173.872 90.1787H168.809C167.576 90.1784 166.576 89.1788 166.576 87.9463V87.3955C166.576 87.3678 166.575 87.3401 166.575 87.3125V87.0537C166.575 78.4243 159.58 71.4288 150.95 71.4287H151.835C150.63 71.4285 149.651 70.4733 149.607 69.2793V64.0234C149.607 63.1822 150.29 62.5 151.131 62.5ZM166.576 90.1787H166.575V89.0947C166.575 89.0885 166.576 89.0823 166.576 89.0761V90.1787Z" fill="#6201E0"/>
</svg>
